# xmcd CD database file
#
# Track frame offsets:
#	150
#	25960
#	60425
#
# Disc length: 1224 seconds
#
# Revision: 0
# Processed by: cddbd v1.5.1PL2 Copyright (c) Steve Scherf et al.
# Submitted via: CDex 1.50
#
DISCID=1c04c603
DTITLE=APOGEE - 夜間飛行
DYEAR=2006
DGENRE=Japanese Pop
TTITLE0=夜間飛行
TTITLE1=Let It Snow
TTITLE2=[CD EXTRA DATA] 夜間飛行 (video clip)
EXTD=YEAR: 2006
EXTT0=
EXTT1=
EXTT2=
PLAYORDER=
